<svg xmlns="http://www.w3.org/2000/svg" xmlns:xlink="http://www.w3.org/1999/xlink" width="1640" zoomAndPan="magnify" viewBox="0 0 1230 693.000001" height="924" preserveAspectRatio="xMidYMid meet" version="1.0"><defs><g><g id="id1"/></g><clipPath id="id2"><path d="M 112 456 L 151 456 L 151 484.699219 L 112 484.699219 Z M 112 456 " clip-rule="nonzero"/></clipPath><clipPath id="id3"><path d="M 21.601562 355 L 51 355 L 51 395 L 21.601562 395 Z M 21.601562 355 " clip-rule="nonzero"/></clipPath><clipPath id="id4"><path d="M 250 208 L 298.703125 208 L 298.703125 256 L 250 256 Z M 250 208 " clip-rule="nonzero"/></clipPath></defs><path fill="rgb(52.938843%, 5.488586%, 30.979919%)" d="M 104.320312 334.539062 L 70.601562 300.820312 L 57.113281 314.308594 L 90.832031 348.027344 L 104.320312 334.539062 " fill-opacity="1" fill-rule="nonzero"/><path fill="rgb(52.938843%, 5.488586%, 30.979919%)" d="M 171.761719 401.980469 L 205.484375 435.703125 L 191.996094 449.191406 L 158.273438 415.46875 L 171.761719 401.980469 " fill-opacity="1" fill-rule="nonzero"/><path fill="rgb(52.938843%, 5.488586%, 30.979919%)" d="M 90.832031 401.980469 L 57.113281 435.703125 L 70.601562 449.191406 L 104.320312 415.46875 L 90.832031 401.980469 " fill-opacity="1" fill-rule="nonzero"/><path fill="rgb(67.83905%, 7.839966%, 33.729553%)" d="M 130.8125 436.523438 C 96.609375 436.523438 68.8125 408.707031 68.8125 374.519531 C 68.8125 340.316406 96.609375 312.519531 130.8125 312.519531 C 165 312.519531 192.816406 340.316406 192.816406 374.519531 C 192.816406 408.707031 165 436.523438 130.8125 436.523438 " fill-opacity="1" fill-rule="nonzero"/><path fill="rgb(52.938843%, 5.488586%, 30.979919%)" d="M 140.835938 427.46875 L 140.835938 470.390625 L 121.757812 470.390625 L 121.757812 427.46875 L 140.835938 427.46875 " fill-opacity="1" fill-rule="nonzero"/><g clip-path="url(#id2)"><path fill="rgb(52.938843%, 5.488586%, 30.979919%)" d="M 150.375 470.390625 C 150.375 478.292969 141.84375 484.699219 131.296875 484.699219 C 120.753906 484.699219 112.21875 478.292969 112.21875 470.390625 C 112.21875 462.492188 120.753906 456.085938 131.296875 456.085938 C 141.84375 456.085938 150.375 462.492188 150.375 470.390625 " fill-opacity="1" fill-rule="nonzero"/></g><path fill="rgb(52.938843%, 5.488586%, 30.979919%)" d="M 140.835938 327.3125 L 140.835938 279.617188 L 121.757812 279.617188 L 121.757812 327.3125 L 140.835938 327.3125 " fill-opacity="1" fill-rule="nonzero"/><path fill="rgb(52.938843%, 5.488586%, 30.979919%)" d="M 150.375 279.617188 C 150.375 271.71875 141.84375 265.308594 131.296875 265.308594 C 120.753906 265.308594 112.21875 271.71875 112.21875 279.617188 C 112.21875 287.515625 120.753906 293.925781 131.296875 293.925781 C 141.84375 293.925781 150.375 287.515625 150.375 279.617188 " fill-opacity="1" fill-rule="nonzero"/><path fill="rgb(52.938843%, 5.488586%, 30.979919%)" d="M 212.226562 428.957031 C 217.816406 434.546875 216.308594 445.128906 208.875 452.5625 C 201.421875 460.015625 190.839844 461.542969 185.25 455.933594 C 179.664062 450.347656 181.171875 439.78125 188.625 432.332031 C 196.074219 424.898438 206.640625 423.386719 212.226562 428.957031 " fill-opacity="1" fill-rule="nonzero"/><path fill="rgb(52.938843%, 5.488586%, 30.979919%)" d="M 77.34375 294.074219 C 71.753906 288.484375 61.171875 289.996094 53.738281 297.429688 C 46.289062 304.878906 44.777344 315.460938 50.367188 321.050781 C 55.957031 326.640625 66.519531 325.132812 73.972656 317.679688 C 81.425781 310.226562 82.933594 299.664062 77.34375 294.074219 " fill-opacity="1" fill-rule="nonzero"/><path fill="rgb(52.938843%, 5.488586%, 30.979919%)" d="M 178.992188 365.464844 L 226.683594 365.464844 L 226.683594 384.542969 L 178.992188 384.542969 L 178.992188 365.464844 " fill-opacity="1" fill-rule="nonzero"/><path fill="rgb(52.938843%, 5.488586%, 30.979919%)" d="M 226.683594 355.925781 C 234.585938 355.925781 240.992188 364.460938 240.992188 375.003906 C 240.992188 385.550781 234.585938 394.082031 226.683594 394.082031 C 218.785156 394.082031 212.378906 385.550781 212.378906 375.003906 C 212.378906 364.460938 218.785156 355.925781 226.683594 355.925781 " fill-opacity="1" fill-rule="nonzero"/><path fill="rgb(52.938843%, 5.488586%, 30.979919%)" d="M 83.605469 365.464844 L 35.910156 365.464844 L 35.910156 384.542969 L 83.605469 384.542969 L 83.605469 365.464844 " fill-opacity="1" fill-rule="nonzero"/><g clip-path="url(#id3)"><path fill="rgb(52.938843%, 5.488586%, 30.979919%)" d="M 35.910156 355.925781 C 28.011719 355.925781 21.601562 364.460938 21.601562 375.003906 C 21.601562 385.550781 28.011719 394.082031 35.910156 394.082031 C 43.808594 394.082031 50.21875 385.550781 50.21875 375.003906 C 50.21875 364.460938 43.808594 355.925781 35.910156 355.925781 " fill-opacity="1" fill-rule="nonzero"/></g><path fill="rgb(52.938843%, 5.488586%, 30.979919%)" d="M 50.367188 428.957031 C 44.777344 434.546875 46.289062 445.128906 53.738281 452.5625 C 61.171875 460.015625 71.753906 461.542969 77.34375 455.933594 C 82.933594 450.347656 81.425781 439.78125 73.972656 432.332031 C 66.519531 424.898438 55.957031 423.386719 50.367188 428.957031 " fill-opacity="1" fill-rule="nonzero"/><path fill="rgb(52.938843%, 5.488586%, 30.979919%)" d="M 121.757812 355.925781 C 121.757812 361.199219 117.492188 365.464844 112.21875 365.464844 C 106.949219 365.464844 102.683594 361.199219 102.683594 355.925781 C 102.683594 350.65625 106.949219 346.390625 112.21875 346.390625 C 117.492188 346.390625 121.757812 350.65625 121.757812 355.925781 " fill-opacity="1" fill-rule="nonzero"/><path fill="rgb(52.938843%, 5.488586%, 30.979919%)" d="M 155.144531 398.851562 C 155.144531 404.125 144.46875 408.390625 131.296875 408.390625 C 118.125 408.390625 107.449219 404.125 107.449219 398.851562 C 107.449219 393.578125 118.125 389.3125 131.296875 389.3125 C 144.46875 389.3125 155.144531 393.578125 155.144531 398.851562 " fill-opacity="1" fill-rule="nonzero"/><path fill="rgb(12.159729%, 53.329468%, 89.7995%)" d="M 193.300781 341.621094 L 164.683594 313.003906 L 236.222656 241.464844 L 264.839844 270.078125 L 193.300781 341.621094 " fill-opacity="1" fill-rule="nonzero"/><path fill="rgb(12.159729%, 53.329468%, 89.7995%)" d="M 260.070312 265.308594 L 240.992188 246.230469 L 264.839844 222.386719 L 283.917969 241.464844 L 260.070312 265.308594 " fill-opacity="1" fill-rule="nonzero"/><path fill="rgb(14.509583%, 19.60907%, 21.958923%)" d="M 131.296875 379.773438 C 130.066406 379.773438 128.855469 379.308594 127.925781 378.378906 C 126.0625 376.515625 126.0625 373.496094 127.925781 371.632812 L 161.3125 338.246094 C 163.175781 336.382812 166.191406 336.382812 168.054688 338.246094 C 169.917969 340.109375 169.917969 343.128906 168.054688 344.992188 L 134.671875 378.378906 C 133.738281 379.308594 132.507812 379.773438 131.296875 379.773438 " fill-opacity="1" fill-rule="nonzero"/><path fill="rgb(8.628845%, 39.608765%, 75.289917%)" d="M 169.453125 346.390625 L 159.914062 336.851562 L 169.453125 317.773438 L 188.53125 336.851562 L 169.453125 346.390625 " fill-opacity="1" fill-rule="nonzero"/><path fill="rgb(8.628845%, 39.608765%, 75.289917%)" d="M 269.609375 279.617188 C 268.378906 279.617188 267.167969 279.152344 266.238281 278.21875 L 228.082031 240.066406 C 226.21875 238.203125 226.21875 235.183594 228.082031 233.320312 C 229.945312 231.457031 232.964844 231.457031 234.828125 233.320312 L 272.980469 271.476562 C 274.84375 273.339844 274.84375 276.359375 272.980469 278.21875 C 272.050781 279.152344 270.839844 279.617188 269.609375 279.617188 " fill-opacity="1" fill-rule="nonzero"/><path fill="rgb(8.628845%, 39.608765%, 75.289917%)" d="M 188.101562 309.148438 C 187.152344 310.042969 185.960938 310.527344 184.710938 310.527344 C 183.519531 310.527344 182.289062 310.042969 181.320312 309.148438 L 175.414062 303.222656 C 175.265625 303.074219 175.136719 302.886719 174.984375 302.699219 L 181.65625 296.03125 C 181.859375 296.160156 182.046875 296.3125 182.175781 296.460938 L 188.101562 302.367188 C 189.964844 304.265625 189.964844 307.285156 188.101562 309.148438 " fill-opacity="1" fill-rule="nonzero"/><path fill="rgb(8.628845%, 39.608765%, 75.289917%)" d="M 201.925781 295.304688 C 201.03125 296.21875 199.78125 296.703125 198.554688 296.703125 C 197.359375 296.703125 196.113281 296.21875 195.199219 295.304688 L 189.238281 289.34375 C 189.109375 289.210938 188.957031 289.0625 188.808594 288.878906 L 195.496094 282.1875 C 195.683594 282.28125 195.871094 282.488281 196.019531 282.617188 L 201.925781 288.542969 C 203.789062 290.40625 203.789062 293.441406 201.925781 295.304688 " fill-opacity="1" fill-rule="nonzero"/><path fill="rgb(8.628845%, 39.608765%, 75.289917%)" d="M 215.769531 281.480469 C 214.855469 282.394531 213.625 282.859375 212.378906 282.859375 C 211.183594 282.859375 209.9375 282.394531 209.042969 281.480469 L 203.082031 275.519531 C 202.929688 275.371094 202.78125 275.238281 202.652344 275.035156 L 209.320312 268.363281 C 209.507812 268.457031 209.714844 268.644531 209.84375 268.792969 L 215.769531 274.699219 C 217.632812 276.5625 217.632812 279.617188 215.769531 281.480469 " fill-opacity="1" fill-rule="nonzero"/><path fill="rgb(8.628845%, 39.608765%, 75.289917%)" d="M 229.589844 267.601562 C 228.679688 268.550781 227.449219 269.035156 226.257812 269.035156 C 225.007812 269.035156 223.777344 268.550781 222.867188 267.601562 L 216.960938 261.675781 C 216.8125 261.546875 216.625 261.339844 216.53125 261.15625 L 223.164062 254.523438 C 223.351562 254.632812 223.535156 254.820312 223.6875 254.96875 L 229.589844 260.875 C 231.453125 262.738281 231.453125 265.738281 229.589844 267.601562 " fill-opacity="1" fill-rule="nonzero"/><g clip-path="url(#id4)"><path fill="rgb(8.628845%, 39.608765%, 75.289917%)" d="M 293.457031 255.769531 C 292.226562 255.769531 291.015625 255.304688 290.085938 254.375 L 251.929688 216.21875 C 250.066406 214.355469 250.066406 211.335938 251.929688 209.476562 C 253.792969 207.613281 256.808594 207.613281 258.671875 209.476562 L 296.828125 247.628906 C 298.691406 249.492188 298.691406 252.511719 296.828125 254.375 C 295.898438 255.304688 294.6875 255.769531 293.457031 255.769531 " fill-opacity="1" fill-rule="nonzero"/></g><g fill="rgb(8.628845%, 39.608765%, 75.289917%)" fill-opacity="1"><g transform="translate(277.276201, 413.14371)"><g><path d="M 23.46875 -13.078125 C 27.476562 -12.671875 30.46875 -12.46875 32.4375 -12.46875 C 34.414062 -12.46875 37.414062 -12.742188 41.4375 -13.296875 C 42.675781 -12.878906 43.398438 -12.359375 43.609375 -11.734375 C 43.816406 -11.109375 43.882812 -10.46875 43.8125 -9.8125 C 43.75 -9.15625 43.785156 -8.515625 43.921875 -7.890625 C 44.066406 -7.265625 44.726562 -6.742188 45.90625 -6.328125 C 46.519531 -6.117188 46.707031 -5.515625 46.46875 -4.515625 C 46.226562 -3.515625 45.65625 -2.425781 44.75 -1.25 C 42.46875 1.726562 39.769531 3.804688 36.65625 4.984375 C 31.675781 6.234375 27.765625 6.960938 24.921875 7.171875 C 20.210938 7.515625 15.085938 7.335938 9.546875 6.640625 C 3.460938 5.535156 0.523438 3.007812 0.734375 -0.9375 C 0.734375 -15.46875 3.914062 -30.070312 10.28125 -44.75 C 12.351562 -49.53125 14.707031 -54.550781 17.34375 -59.8125 C 17.894531 -60.914062 18.222656 -62.160156 18.328125 -63.546875 C 18.429688 -64.929688 18.515625 -66.28125 18.578125 -67.59375 C 18.648438 -68.914062 18.859375 -70.09375 19.203125 -71.125 C 19.554688 -72.164062 20.285156 -72.894531 21.390625 -73.3125 C 35.785156 -79.0625 47.175781 -81.273438 55.5625 -79.953125 C 58.46875 -79.890625 60.382812 -78.90625 61.3125 -77 C 62.25 -75.09375 62.351562 -72.960938 61.625 -70.609375 C 60.90625 -68.253906 59.488281 -66.039062 57.375 -63.96875 C 55.257812 -61.894531 52.609375 -60.613281 49.421875 -60.125 C 45.335938 -58.945312 42.847656 -58.148438 41.953125 -57.734375 C 40.222656 -56.898438 38.976562 -55.796875 38.21875 -54.421875 C 37.25 -52.890625 36.347656 -51.429688 35.515625 -50.046875 C 34.679688 -48.660156 34.09375 -47.175781 33.75 -45.59375 L 33.328125 -43.296875 C 34.648438 -42.679688 36.257812 -42.492188 38.15625 -42.734375 C 40.0625 -42.972656 41.828125 -43.210938 43.453125 -43.453125 C 45.085938 -43.703125 46.40625 -43.722656 47.40625 -43.515625 C 48.40625 -43.304688 48.609375 -42.28125 48.015625 -40.4375 C 47.429688 -38.601562 46.359375 -36.546875 44.796875 -34.265625 C 43.242188 -31.984375 41.050781 -30.320312 38.21875 -29.28125 C 36.414062 -28.9375 35.1875 -28.675781 34.53125 -28.5 C 33.875 -28.332031 33.367188 -28.210938 33.015625 -28.140625 C 32.535156 -28.066406 31.15625 -27.960938 28.875 -27.828125 C 25.613281 -22.285156 23.640625 -17.992188 22.953125 -14.953125 C 22.671875 -13.703125 22.84375 -13.078125 23.46875 -13.078125 Z M 23.46875 -13.078125 "/></g></g></g><g fill="rgb(8.628845%, 39.608765%, 75.289917%)" fill-opacity="1"><g transform="translate(331.689548, 413.14371)"><g/></g></g><g fill="rgb(8.628845%, 39.608765%, 75.289917%)" fill-opacity="1"><g transform="translate(364.088329, 413.14371)"><g><path d="M 57.421875 -70.40625 C 59.773438 -69.15625 61.265625 -67.320312 61.890625 -64.90625 C 60.503906 -57.144531 59.253906 -49.441406 58.140625 -41.796875 C 57.035156 -34.148438 55.960938 -27.742188 54.921875 -22.578125 C 53.890625 -17.421875 53.179688 -13.5625 52.796875 -11 C 52.421875 -8.445312 51.988281 -5.890625 51.5 -3.328125 L 50.890625 -1.140625 C 50.742188 -0.378906 50.601562 0.328125 50.46875 0.984375 C 50.332031 1.640625 50.191406 2.347656 50.046875 3.109375 C 48.109375 5.328125 45.476562 6.4375 42.15625 6.4375 C 38.625 6.4375 35.820312 5.535156 33.75 3.734375 C 32.5 2.765625 32.289062 0.722656 33.125 -2.390625 C 33.46875 -3.628906 33.691406 -5.234375 33.796875 -7.203125 C 33.898438 -9.179688 34.023438 -10.832031 34.171875 -12.15625 L 34.171875 -12.359375 C 32.085938 -11.597656 30.210938 -10.609375 28.546875 -9.390625 C 26.890625 -8.179688 25.851562 -7.421875 25.4375 -7.109375 C 25.019531 -6.796875 24.460938 -6.550781 23.765625 -6.375 C 23.078125 -6.207031 22.457031 -6.085938 21.90625 -6.015625 C 20.59375 -5.953125 19.695312 -5.75 19.21875 -5.40625 C 15.195312 1.800781 11.59375 5.816406 8.40625 6.640625 C 6.40625 7.265625 4.398438 7.421875 2.390625 7.109375 C 0.378906 6.796875 -1.210938 5.601562 -2.390625 3.53125 C -4.609375 1.457031 -4.054688 -4.21875 -0.734375 -13.5 C 1.066406 -18.414062 3.644531 -24.316406 7 -31.203125 C 10.363281 -38.085938 13.601562 -44.09375 16.71875 -49.21875 C 23.4375 -60.226562 30.8125 -69.503906 38.84375 -77.046875 C 40.15625 -77.597656 41.570312 -78.238281 43.09375 -78.96875 C 44.613281 -79.695312 46.117188 -80.09375 47.609375 -80.15625 C 49.097656 -80.226562 50.640625 -80.054688 52.234375 -79.640625 C 53.828125 -79.234375 55.175781 -78.613281 56.28125 -77.78125 C 58.84375 -75.84375 59.222656 -73.382812 57.421875 -70.40625 Z M 35.203125 -43.09375 C 33.742188 -38.9375 32.285156 -35.109375 30.828125 -31.609375 C 29.378906 -28.117188 28.140625 -25.0625 27.109375 -22.4375 L 35.3125 -22.734375 C 35.863281 -27.171875 36.484375 -31.566406 37.171875 -35.921875 C 37.867188 -40.285156 38.53125 -44.648438 39.15625 -49.015625 Z M 32.40625 -22.328125 C 33.375 -22.328125 34.34375 -22.394531 35.3125 -22.53125 L 35.3125 -22.640625 C 34.40625 -22.566406 33.570312 -22.492188 32.8125 -22.421875 C 32.050781 -22.359375 31.914062 -22.328125 32.40625 -22.328125 Z M 32.40625 -22.328125 "/></g></g></g><g fill="rgb(8.628845%, 39.608765%, 75.289917%)" fill-opacity="1"><g transform="translate(422.655357, 413.14371)"><g><path d="M 43.9375 -70.203125 C 41.507812 -62.648438 39.273438 -55.828125 37.234375 -49.734375 C 35.191406 -43.648438 33.320312 -38.046875 31.625 -32.921875 C 29.925781 -27.796875 28.347656 -23.066406 26.890625 -18.734375 C 25.441406 -14.410156 24.09375 -10.273438 22.84375 -6.328125 C 22.15625 -1.765625 19.90625 1.453125 16.09375 3.328125 C 13.882812 4.359375 11.253906 4.875 8.203125 4.875 C 5.160156 4.875 2.878906 4.546875 1.359375 3.890625 C -0.160156 3.234375 -1.144531 2.28125 -1.59375 1.03125 C -2.050781 -0.207031 -2.050781 -1.707031 -1.59375 -3.46875 C -1.144531 -5.238281 -0.367188 -7.664062 0.734375 -10.75 C 1.835938 -13.832031 3.238281 -18.003906 4.9375 -23.265625 C 6.632812 -28.523438 8.414062 -33.851562 10.28125 -39.25 C 14.925781 -52.75 18.597656 -62.097656 21.296875 -67.296875 C 22.328125 -69.234375 23.363281 -70.53125 24.40625 -71.1875 C 25.445312 -71.84375 26.453125 -72.328125 27.421875 -72.640625 C 28.390625 -72.953125 29.285156 -73.316406 30.109375 -73.734375 C 30.941406 -74.148438 31.6875 -75.1875 32.34375 -76.84375 C 33.007812 -78.507812 34.222656 -79.648438 35.984375 -80.265625 C 37.753906 -80.890625 39.414062 -80.941406 40.96875 -80.421875 C 42.53125 -79.898438 43.707031 -78.789062 44.5 -77.09375 C 45.300781 -75.40625 45.113281 -73.109375 43.9375 -70.203125 Z M 48.1875 -110.34375 C 52.269531 -110.0625 55.28125 -109.023438 57.21875 -107.234375 C 59.4375 -105.296875 59.300781 -103.285156 56.8125 -101.203125 C 56.601562 -100.441406 56.1875 -99.613281 55.5625 -98.71875 C 51.269531 -94.425781 47.671875 -91.515625 44.765625 -89.984375 C 40.816406 -87.984375 37.703125 -87.429688 35.421875 -88.328125 C 33.066406 -89.222656 32.613281 -91.265625 34.0625 -94.453125 L 34.6875 -95.1875 C 34.894531 -97.8125 36.59375 -101.304688 39.78125 -105.671875 C 40.539062 -106.710938 41.195312 -107.441406 41.75 -107.859375 C 43.625 -108.960938 45.664062 -109.789062 47.875 -110.34375 Z M 48.1875 -110.34375 "/></g></g></g><g fill="rgb(8.628845%, 39.608765%, 75.289917%)" fill-opacity="1"><g transform="translate(457.857877, 413.14371)"><g><path d="M 23.890625 -7.484375 C 24.097656 -7.203125 24.300781 -6.9375 24.5 -6.6875 C 24.707031 -6.445312 24.882812 -6.191406 25.03125 -5.921875 L 26.890625 -4.046875 C 26.828125 -3.210938 26.914062 -2.378906 27.15625 -1.546875 C 27.394531 -0.722656 27.460938 0.289062 27.359375 1.5 C 27.253906 2.71875 26.648438 4.085938 25.546875 5.609375 C 24.441406 7.128906 23.160156 8.515625 21.703125 9.765625 C 19.003906 13.222656 15.785156 15.578125 12.046875 16.828125 C 7.960938 18.210938 4.394531 17.625 1.34375 15.0625 C 0.863281 14.09375 0.625 13.347656 0.625 12.828125 C 0.625 12.304688 0.863281 11.597656 1.34375 10.703125 C 1.695312 9.796875 2.269531 8.753906 3.0625 7.578125 C 3.851562 6.398438 4.597656 5.289062 5.296875 4.25 L 4.78125 3.84375 L 4.5625 4.046875 C 4.351562 4.117188 4.25 3.910156 4.25 3.421875 C 4.050781 3.285156 3.707031 2.976562 3.21875 2.5 L 3.109375 2.5 L 2.28125 1.765625 L 2.078125 1.25 C 0.140625 -2.351562 0.414062 -5.296875 2.90625 -7.578125 C 5.601562 -10.140625 9.515625 -11.28125 14.640625 -11 C 15.890625 -10.9375 17.796875 -10.488281 20.359375 -9.65625 C 20.835938 -9.175781 21.300781 -8.757812 21.75 -8.40625 C 22.207031 -8.0625 22.609375 -7.753906 22.953125 -7.484375 L 23.359375 -7.78125 Z M 23.890625 -7.484375 "/></g></g></g><g fill="rgb(8.628845%, 39.608765%, 75.289917%)" fill-opacity="1"><g transform="translate(487.764435, 413.14371)"><g/></g></g><g fill="rgb(8.628845%, 39.608765%, 75.289917%)" fill-opacity="1"><g transform="translate(520.163216, 413.14371)"><g><path d="M 36.1875 -26.625 C 34.28125 -21.195312 32.359375 -15.988281 30.421875 -11 C 28.484375 -6.019531 26.875 -2.234375 25.59375 0.359375 C 24.3125 2.953125 23.1875 4.734375 22.21875 5.703125 C 21.25 6.679688 20.257812 7.34375 19.25 7.6875 C 18.25 8.03125 17.25 8.164062 16.25 8.09375 C 15.25 8.03125 14.226562 7.960938 13.1875 7.890625 C 7.375 6.992188 5.570312 2.804688 7.78125 -4.671875 C 9.238281 -10.628906 10.414062 -15.492188 11.3125 -19.265625 C 12.21875 -23.035156 12.960938 -26.148438 13.546875 -28.609375 C 14.140625 -31.066406 14.644531 -33.109375 15.0625 -34.734375 C 15.476562 -36.359375 15.925781 -37.96875 16.40625 -39.5625 C 16.894531 -41.15625 17.5 -42.953125 18.21875 -44.953125 C 18.945312 -46.960938 19.898438 -49.628906 21.078125 -52.953125 C 18.453125 -52.609375 16.097656 -52.890625 14.015625 -53.796875 C 10.972656 -55.109375 9.726562 -57.945312 10.28125 -62.3125 C 10.5625 -64.3125 11.632812 -66.175781 13.5 -67.90625 C 14.46875 -68.8125 15.609375 -69.785156 16.921875 -70.828125 C 19.617188 -72.972656 24.984375 -75.253906 33.015625 -77.671875 C 41.328125 -80.160156 48.460938 -81.335938 54.421875 -81.203125 C 56.003906 -81.484375 57.644531 -81.289062 59.34375 -80.625 C 61.039062 -79.96875 62.40625 -79.085938 63.4375 -77.984375 C 64.476562 -76.878906 65.015625 -75.664062 65.046875 -74.34375 C 65.085938 -73.03125 64.242188 -71.859375 62.515625 -70.828125 C 61.679688 -70.265625 61.09375 -69.34375 60.75 -68.0625 C 60.40625 -66.78125 60.023438 -65.429688 59.609375 -64.015625 C 59.191406 -62.597656 58.582031 -61.300781 57.78125 -60.125 C 56.988281 -58.945312 55.726562 -58.253906 54 -58.046875 C 53.101562 -57.566406 51.835938 -57.222656 50.203125 -57.015625 C 48.578125 -56.804688 47.503906 -56.648438 46.984375 -56.546875 C 46.460938 -56.441406 46.171875 -56.25 46.109375 -55.96875 C 44.859375 -52.300781 43.367188 -47.851562 41.640625 -42.625 C 39.910156 -37.394531 38.09375 -32.0625 36.1875 -26.625 Z M 22.125 -54.109375 C 21.976562 -54.109375 21.90625 -54.085938 21.90625 -54.046875 C 21.90625 -54.015625 21.976562 -54 22.125 -54 Z M 22.125 -54.109375 "/></g></g></g><g fill="rgb(8.628845%, 39.608765%, 75.289917%)" fill-opacity="1"><g transform="translate(572.292025, 413.14371)"><g><path d="M 57.421875 -70.40625 C 59.773438 -69.15625 61.265625 -67.320312 61.890625 -64.90625 C 60.503906 -57.144531 59.253906 -49.441406 58.140625 -41.796875 C 57.035156 -34.148438 55.960938 -27.742188 54.921875 -22.578125 C 53.890625 -17.421875 53.179688 -13.5625 52.796875 -11 C 52.421875 -8.445312 51.988281 -5.890625 51.5 -3.328125 L 50.890625 -1.140625 C 50.742188 -0.378906 50.601562 0.328125 50.46875 0.984375 C 50.332031 1.640625 50.191406 2.347656 50.046875 3.109375 C 48.109375 5.328125 45.476562 6.4375 42.15625 6.4375 C 38.625 6.4375 35.820312 5.535156 33.75 3.734375 C 32.5 2.765625 32.289062 0.722656 33.125 -2.390625 C 33.46875 -3.628906 33.691406 -5.234375 33.796875 -7.203125 C 33.898438 -9.179688 34.023438 -10.832031 34.171875 -12.15625 L 34.171875 -12.359375 C 32.085938 -11.597656 30.210938 -10.609375 28.546875 -9.390625 C 26.890625 -8.179688 25.851562 -7.421875 25.4375 -7.109375 C 25.019531 -6.796875 24.460938 -6.550781 23.765625 -6.375 C 23.078125 -6.207031 22.457031 -6.085938 21.90625 -6.015625 C 20.59375 -5.953125 19.695312 -5.75 19.21875 -5.40625 C 15.195312 1.800781 11.59375 5.816406 8.40625 6.640625 C 6.40625 7.265625 4.398438 7.421875 2.390625 7.109375 C 0.378906 6.796875 -1.210938 5.601562 -2.390625 3.53125 C -4.609375 1.457031 -4.054688 -4.21875 -0.734375 -13.5 C 1.066406 -18.414062 3.644531 -24.316406 7 -31.203125 C 10.363281 -38.085938 13.601562 -44.09375 16.71875 -49.21875 C 23.4375 -60.226562 30.8125 -69.503906 38.84375 -77.046875 C 40.15625 -77.597656 41.570312 -78.238281 43.09375 -78.96875 C 44.613281 -79.695312 46.117188 -80.09375 47.609375 -80.15625 C 49.097656 -80.226562 50.640625 -80.054688 52.234375 -79.640625 C 53.828125 -79.234375 55.175781 -78.613281 56.28125 -77.78125 C 58.84375 -75.84375 59.222656 -73.382812 57.421875 -70.40625 Z M 35.203125 -43.09375 C 33.742188 -38.9375 32.285156 -35.109375 30.828125 -31.609375 C 29.378906 -28.117188 28.140625 -25.0625 27.109375 -22.4375 L 35.3125 -22.734375 C 35.863281 -27.171875 36.484375 -31.566406 37.171875 -35.921875 C 37.867188 -40.285156 38.53125 -44.648438 39.15625 -49.015625 Z M 32.40625 -22.328125 C 33.375 -22.328125 34.34375 -22.394531 35.3125 -22.53125 L 35.3125 -22.640625 C 34.40625 -22.566406 33.570312 -22.492188 32.8125 -22.421875 C 32.050781 -22.359375 31.914062 -22.328125 32.40625 -22.328125 Z M 59.078125 -111.34375 C 63.160156 -111.0625 66.171875 -110.023438 68.109375 -108.234375 C 70.328125 -106.296875 70.191406 -104.285156 67.703125 -102.203125 C 67.492188 -101.441406 67.078125 -100.613281 66.453125 -99.71875 C 62.160156 -95.425781 58.5625 -92.515625 55.65625 -90.984375 C 51.707031 -88.984375 48.59375 -88.429688 46.3125 -89.328125 C 43.957031 -90.222656 43.503906 -92.265625 44.953125 -95.453125 L 45.578125 -96.1875 C 45.785156 -98.8125 47.484375 -102.304688 50.671875 -106.671875 C 51.429688 -107.710938 52.085938 -108.441406 52.640625 -108.859375 C 54.515625 -109.960938 56.554688 -110.789062 58.765625 -111.34375 Z M 59.078125 -111.34375 "/></g></g></g><g fill="rgb(8.628845%, 39.608765%, 75.289917%)" fill-opacity="1"><g transform="translate(630.859053, 413.14371)"><g/></g></g><g fill="rgb(8.628845%, 39.608765%, 75.289917%)" fill-opacity="1"><g transform="translate(663.257834, 413.14371)"><g><path d="M 8.203125 -3.421875 L 7.484375 -70.515625 C 7.484375 -72.171875 8.15625 -73.601562 9.5 -74.8125 C 10.851562 -76.03125 12.394531 -76.878906 14.125 -77.359375 C 15.851562 -77.847656 17.476562 -77.914062 19 -77.5625 C 20.519531 -77.21875 21.488281 -76.320312 21.90625 -74.875 C 23.226562 -72.238281 24.128906 -68.601562 24.609375 -63.96875 C 25.503906 -55.3125 25.953125 -47.832031 25.953125 -41.53125 C 26.648438 -40.425781 27.519531 -39.910156 28.5625 -39.984375 C 31.53125 -47.253906 34.816406 -54.242188 38.421875 -60.953125 C 42.023438 -67.671875 44.34375 -71.976562 45.375 -73.875 C 46.414062 -75.78125 47.660156 -77.113281 49.109375 -77.875 C 50.566406 -78.644531 52.128906 -79.132812 53.796875 -79.34375 C 57.390625 -79.75 60.78125 -79.125 63.96875 -77.46875 C 66.394531 -76.632812 67.8125 -75.210938 68.21875 -73.203125 C 69.8125 -70.023438 68.738281 -66.359375 65 -62.203125 C 60.644531 -55.273438 56.25 -47.625 51.8125 -39.25 C 43.375 -23.125 38.007812 -13.191406 35.71875 -9.453125 C 33.4375 -5.710938 31.773438 -3.0625 30.734375 -1.5 C 29.703125 0.0507812 28.523438 1.347656 27.203125 2.390625 C 24.847656 4.253906 22.007812 5.015625 18.6875 4.671875 C 12.875 4.460938 9.484375 2.628906 8.515625 -0.828125 C 8.304688 -1.796875 8.203125 -2.660156 8.203125 -3.421875 Z M 8.203125 -3.421875 "/></g></g></g><g fill="rgb(8.628845%, 39.608765%, 75.289917%)" fill-opacity="1"><g transform="translate(716.736586, 413.14371)"><g><path d="M 57.421875 -70.40625 C 59.773438 -69.15625 61.265625 -67.320312 61.890625 -64.90625 C 60.503906 -57.144531 59.253906 -49.441406 58.140625 -41.796875 C 57.035156 -34.148438 55.960938 -27.742188 54.921875 -22.578125 C 53.890625 -17.421875 53.179688 -13.5625 52.796875 -11 C 52.421875 -8.445312 51.988281 -5.890625 51.5 -3.328125 L 50.890625 -1.140625 C 50.742188 -0.378906 50.601562 0.328125 50.46875 0.984375 C 50.332031 1.640625 50.191406 2.347656 50.046875 3.109375 C 48.109375 5.328125 45.476562 6.4375 42.15625 6.4375 C 38.625 6.4375 35.820312 5.535156 33.75 3.734375 C 32.5 2.765625 32.289062 0.722656 33.125 -2.390625 C 33.46875 -3.628906 33.691406 -5.234375 33.796875 -7.203125 C 33.898438 -9.179688 34.023438 -10.832031 34.171875 -12.15625 L 34.171875 -12.359375 C 32.085938 -11.597656 30.210938 -10.609375 28.546875 -9.390625 C 26.890625 -8.179688 25.851562 -7.421875 25.4375 -7.109375 C 25.019531 -6.796875 24.460938 -6.550781 23.765625 -6.375 C 23.078125 -6.207031 22.457031 -6.085938 21.90625 -6.015625 C 20.59375 -5.953125 19.695312 -5.75 19.21875 -5.40625 C 15.195312 1.800781 11.59375 5.816406 8.40625 6.640625 C 6.40625 7.265625 4.398438 7.421875 2.390625 7.109375 C 0.378906 6.796875 -1.210938 5.601562 -2.390625 3.53125 C -4.609375 1.457031 -4.054688 -4.21875 -0.734375 -13.5 C 1.066406 -18.414062 3.644531 -24.316406 7 -31.203125 C 10.363281 -38.085938 13.601562 -44.09375 16.71875 -49.21875 C 23.4375 -60.226562 30.8125 -69.503906 38.84375 -77.046875 C 40.15625 -77.597656 41.570312 -78.238281 43.09375 -78.96875 C 44.613281 -79.695312 46.117188 -80.09375 47.609375 -80.15625 C 49.097656 -80.226562 50.640625 -80.054688 52.234375 -79.640625 C 53.828125 -79.234375 55.175781 -78.613281 56.28125 -77.78125 C 58.84375 -75.84375 59.222656 -73.382812 57.421875 -70.40625 Z M 35.203125 -43.09375 C 33.742188 -38.9375 32.285156 -35.109375 30.828125 -31.609375 C 29.378906 -28.117188 28.140625 -25.0625 27.109375 -22.4375 L 35.3125 -22.734375 C 35.863281 -27.171875 36.484375 -31.566406 37.171875 -35.921875 C 37.867188 -40.285156 38.53125 -44.648438 39.15625 -49.015625 Z M 32.40625 -22.328125 C 33.375 -22.328125 34.34375 -22.394531 35.3125 -22.53125 L 35.3125 -22.640625 C 34.40625 -22.566406 33.570312 -22.492188 32.8125 -22.421875 C 32.050781 -22.359375 31.914062 -22.328125 32.40625 -22.328125 Z M 32.40625 -22.328125 "/></g></g></g><g fill="rgb(8.628845%, 39.608765%, 75.289917%)" fill-opacity="1"><g transform="translate(775.303591, 413.14371)"><g><path d="M 46.625 -51.71875 C 46.625 -53.789062 45.894531 -54.828125 44.4375 -54.828125 C 43.882812 -54.828125 43.226562 -54.6875 42.46875 -54.40625 C 41.707031 -54.132812 40.984375 -53.894531 40.296875 -53.6875 C 37.734375 -52.300781 35.738281 -50.796875 34.3125 -49.171875 C 32.894531 -47.546875 31.457031 -45.726562 30 -43.71875 C 28.550781 -41.707031 27.304688 -39.5625 26.265625 -37.28125 C 25.234375 -35 24.441406 -32.851562 23.890625 -30.84375 C 21.878906 -23.4375 22.640625 -18.453125 26.171875 -15.890625 C 27.617188 -14.847656 29.15625 -14.34375 30.78125 -14.375 C 32.414062 -14.414062 33.734375 -14.742188 34.734375 -15.359375 C 35.734375 -15.984375 36.71875 -16.570312 37.6875 -17.125 C 38.664062 -17.6875 39.789062 -18.085938 41.0625 -18.328125 C 42.34375 -18.566406 43.9375 -18.390625 45.84375 -17.796875 C 47.75 -17.210938 48.769531 -16.4375 48.90625 -15.46875 C 49.050781 -14.5 49.050781 -13.492188 48.90625 -12.453125 C 48.769531 -11.421875 48.753906 -10.488281 48.859375 -9.65625 C 48.960938 -8.820312 49.707031 -8.300781 51.09375 -8.09375 C 52.40625 -6.4375 51.570312 -4.429688 48.59375 -2.078125 C 47.832031 -1.453125 47.109375 -0.863281 46.421875 -0.3125 C 40.460938 3.5 34.128906 5.609375 27.421875 6.015625 C 23.191406 6.296875 18.691406 5.535156 13.921875 3.734375 C 6.785156 1.035156 2.769531 -5.019531 1.875 -14.4375 C 0.695312 -23.15625 1.800781 -32.1875 5.1875 -41.53125 C 8.03125 -49.425781 12.320312 -56.734375 18.0625 -63.453125 C 23.257812 -69.609375 28.382812 -73.625 33.4375 -75.5 C 39.457031 -78.613281 45.960938 -79.820312 52.953125 -79.125 C 60.367188 -78.15625 65.21875 -75.003906 67.5 -69.671875 C 69.78125 -64.347656 69.398438 -57.945312 66.359375 -50.46875 C 65.316406 -47.832031 63.34375 -45.753906 60.4375 -44.234375 C 57.945312 -42.847656 55.242188 -42.15625 52.328125 -42.15625 C 49.421875 -42.15625 47.550781 -43.070312 46.71875 -44.90625 C 45.894531 -46.75 45.863281 -49.019531 46.625 -51.71875 Z M 46.625 -51.71875 "/></g></g></g><g fill="rgb(8.628845%, 39.608765%, 75.289917%)" fill-opacity="1"><g transform="translate(834.805191, 413.14371)"><g><path d="M 43.9375 -70.203125 C 41.507812 -62.648438 39.273438 -55.828125 37.234375 -49.734375 C 35.191406 -43.648438 33.320312 -38.046875 31.625 -32.921875 C 29.925781 -27.796875 28.347656 -23.066406 26.890625 -18.734375 C 25.441406 -14.410156 24.09375 -10.273438 22.84375 -6.328125 C 22.15625 -1.765625 19.90625 1.453125 16.09375 3.328125 C 13.882812 4.359375 11.253906 4.875 8.203125 4.875 C 5.160156 4.875 2.878906 4.546875 1.359375 3.890625 C -0.160156 3.234375 -1.144531 2.28125 -1.59375 1.03125 C -2.050781 -0.207031 -2.050781 -1.707031 -1.59375 -3.46875 C -1.144531 -5.238281 -0.367188 -7.664062 0.734375 -10.75 C 1.835938 -13.832031 3.238281 -18.003906 4.9375 -23.265625 C 6.632812 -28.523438 8.414062 -33.851562 10.28125 -39.25 C 14.925781 -52.75 18.597656 -62.097656 21.296875 -67.296875 C 22.328125 -69.234375 23.363281 -70.53125 24.40625 -71.1875 C 25.445312 -71.84375 26.453125 -72.328125 27.421875 -72.640625 C 28.390625 -72.953125 29.285156 -73.316406 30.109375 -73.734375 C 30.941406 -74.148438 31.6875 -75.1875 32.34375 -76.84375 C 33.007812 -78.507812 34.222656 -79.648438 35.984375 -80.265625 C 37.753906 -80.890625 39.414062 -80.941406 40.96875 -80.421875 C 42.53125 -79.898438 43.707031 -78.789062 44.5 -77.09375 C 45.300781 -75.40625 45.113281 -73.109375 43.9375 -70.203125 Z M 43.9375 -70.203125 "/></g></g></g><g fill="rgb(8.628845%, 39.608765%, 75.289917%)" fill-opacity="1"><g transform="translate(872.915327, 413.14371)"><g><path d="M 7.0625 -40.296875 C 8.445312 -44.929688 9.570312 -48.507812 10.4375 -51.03125 C 11.300781 -53.5625 12.148438 -55.832031 12.984375 -57.84375 C 13.816406 -59.851562 14.769531 -61.789062 15.84375 -63.65625 C 16.914062 -65.519531 18.085938 -67.234375 19.359375 -68.796875 C 20.640625 -70.359375 22.007812 -71.585938 23.46875 -72.484375 C 24.925781 -73.378906 26.445312 -73.828125 28.03125 -73.828125 C 29.625 -73.828125 31.285156 -73.207031 33.015625 -71.96875 C 35.785156 -65.039062 37.484375 -60.398438 38.109375 -58.046875 C 38.941406 -54.585938 39.703125 -49.707031 40.390625 -43.40625 C 41.015625 -45 41.722656 -46.675781 42.515625 -48.4375 C 43.316406 -50.207031 44.097656 -51.992188 44.859375 -53.796875 C 47.003906 -58.359375 48.351562 -61.816406 48.90625 -64.171875 C 50.425781 -69.015625 53.578125 -72.648438 58.359375 -75.078125 C 62.515625 -77.148438 66.390625 -77.804688 69.984375 -77.046875 C 71.441406 -76.773438 72.460938 -76.1875 73.046875 -75.28125 C 73.640625 -74.382812 73.640625 -73.453125 73.046875 -72.484375 C 72.460938 -71.515625 72.253906 -70.597656 72.421875 -69.734375 C 72.597656 -68.867188 72.753906 -67.847656 72.890625 -66.671875 C 73.097656 -63.484375 72.546875 -60.660156 71.234375 -58.203125 C 69.921875 -55.742188 68.570312 -52.695312 67.1875 -49.0625 C 65.800781 -45.425781 64.398438 -41.566406 62.984375 -37.484375 C 61.566406 -33.398438 60.128906 -29.242188 58.671875 -25.015625 C 57.210938 -20.796875 55.796875 -16.957031 54.421875 -13.5 C 51.367188 -5.539062 48.875 -1.144531 46.9375 -0.3125 C 44.300781 1.28125 42.363281 2.21875 41.125 2.5 C 39.53125 2.769531 37.28125 2.769531 34.375 2.5 C 32.570312 2.351562 31.015625 0.03125 29.703125 -4.46875 C 28.941406 -6.882812 28.25 -10.238281 27.625 -14.53125 C 26.507812 -22.007812 25.75 -26.128906 25.34375 -26.890625 C 22.570312 -17.890625 20.613281 -12.210938 19.46875 -9.859375 C 18.320312 -7.503906 17.453125 -5.945312 16.859375 -5.1875 C 16.273438 -4.425781 15.570312 -3.425781 14.75 -2.1875 C 13.84375 0.3125 11.695312 2.148438 8.3125 3.328125 C 5.40625 4.429688 2.773438 4.601562 0.421875 3.84375 C -2.140625 3.007812 -2.90625 1.414062 -1.875 -0.9375 C -1.113281 -9.238281 1.863281 -22.359375 7.0625 -40.296875 Z M 7.0625 -40.296875 "/></g></g></g><g fill="rgb(8.628845%, 39.608765%, 75.289917%)" fill-opacity="1"><g transform="translate(938.335968, 413.14371)"><g><path d="M 57.421875 -70.40625 C 59.773438 -69.15625 61.265625 -67.320312 61.890625 -64.90625 C 60.503906 -57.144531 59.253906 -49.441406 58.140625 -41.796875 C 57.035156 -34.148438 55.960938 -27.742188 54.921875 -22.578125 C 53.890625 -17.421875 53.179688 -13.5625 52.796875 -11 C 52.421875 -8.445312 51.988281 -5.890625 51.5 -3.328125 L 50.890625 -1.140625 C 50.742188 -0.378906 50.601562 0.328125 50.46875 0.984375 C 50.332031 1.640625 50.191406 2.347656 50.046875 3.109375 C 48.109375 5.328125 45.476562 6.4375 42.15625 6.4375 C 38.625 6.4375 35.820312 5.535156 33.75 3.734375 C 32.5 2.765625 32.289062 0.722656 33.125 -2.390625 C 33.46875 -3.628906 33.691406 -5.234375 33.796875 -7.203125 C 33.898438 -9.179688 34.023438 -10.832031 34.171875 -12.15625 L 34.171875 -12.359375 C 32.085938 -11.597656 30.210938 -10.609375 28.546875 -9.390625 C 26.890625 -8.179688 25.851562 -7.421875 25.4375 -7.109375 C 25.019531 -6.796875 24.460938 -6.550781 23.765625 -6.375 C 23.078125 -6.207031 22.457031 -6.085938 21.90625 -6.015625 C 20.59375 -5.953125 19.695312 -5.75 19.21875 -5.40625 C 15.195312 1.800781 11.59375 5.816406 8.40625 6.640625 C 6.40625 7.265625 4.398438 7.421875 2.390625 7.109375 C 0.378906 6.796875 -1.210938 5.601562 -2.390625 3.53125 C -4.609375 1.457031 -4.054688 -4.21875 -0.734375 -13.5 C 1.066406 -18.414062 3.644531 -24.316406 7 -31.203125 C 10.363281 -38.085938 13.601562 -44.09375 16.71875 -49.21875 C 23.4375 -60.226562 30.8125 -69.503906 38.84375 -77.046875 C 40.15625 -77.597656 41.570312 -78.238281 43.09375 -78.96875 C 44.613281 -79.695312 46.117188 -80.09375 47.609375 -80.15625 C 49.097656 -80.226562 50.640625 -80.054688 52.234375 -79.640625 C 53.828125 -79.234375 55.175781 -78.613281 56.28125 -77.78125 C 58.84375 -75.84375 59.222656 -73.382812 57.421875 -70.40625 Z M 35.203125 -43.09375 C 33.742188 -38.9375 32.285156 -35.109375 30.828125 -31.609375 C 29.378906 -28.117188 28.140625 -25.0625 27.109375 -22.4375 L 35.3125 -22.734375 C 35.863281 -27.171875 36.484375 -31.566406 37.171875 -35.921875 C 37.867188 -40.285156 38.53125 -44.648438 39.15625 -49.015625 Z M 32.40625 -22.328125 C 33.375 -22.328125 34.34375 -22.394531 35.3125 -22.53125 L 35.3125 -22.640625 C 34.40625 -22.566406 33.570312 -22.492188 32.8125 -22.421875 C 32.050781 -22.359375 31.914062 -22.328125 32.40625 -22.328125 Z M 32.40625 -22.328125 "/></g></g></g><g fill="rgb(8.628845%, 39.608765%, 75.289917%)" fill-opacity="1"><g transform="translate(996.902973, 413.14371)"><g><path d="M 64.59375 -42.15625 C 64.3125 -39.175781 63.769531 -36.128906 62.96875 -33.015625 C 62.175781 -29.898438 61.035156 -26.851562 59.546875 -23.875 C 58.066406 -20.90625 56.300781 -18.035156 54.25 -15.265625 C 52.207031 -12.492188 49.941406 -9.929688 47.453125 -7.578125 C 44.960938 -5.222656 42.296875 -3.25 39.453125 -1.65625 C 33.367188 1.9375 27.488281 3.21875 21.8125 2.1875 C 20.5625 4.882812 18.707031 6.59375 16.25 7.3125 C 13.789062 8.039062 11.367188 8.039062 8.984375 7.3125 C 6.597656 6.59375 4.503906 5.226562 2.703125 3.21875 C 0.898438 1.207031 0 -1.539062 0 -5.03125 C 0 -8.53125 0.238281 -12.113281 0.71875 -15.78125 C 1.207031 -19.445312 1.867188 -22.976562 2.703125 -26.375 C 4.015625 -31.976562 5.640625 -37.238281 7.578125 -42.15625 C 12.148438 -53.300781 14.75 -61.125 15.375 -65.625 C 16.269531 -71.644531 17.929688 -75.382812 20.359375 -76.84375 C 24.367188 -79.195312 28.171875 -80.203125 31.765625 -79.859375 C 35.367188 -79.515625 38.625 -78.648438 41.53125 -77.265625 C 46.3125 -74.972656 51.472656 -71.128906 57.015625 -65.734375 C 63.097656 -59.847656 65.625 -51.988281 64.59375 -42.15625 Z M 23.78125 -11 C 27.3125 -12.800781 30.164062 -14.65625 32.34375 -16.5625 C 34.53125 -18.46875 36.59375 -20.21875 38.53125 -21.8125 C 41.5 -24.78125 43.675781 -28.3125 45.0625 -32.40625 C 48.113281 -41.40625 46.175781 -48.222656 39.25 -52.859375 C 38.207031 -53.617188 36.648438 -54.65625 34.578125 -55.96875 C 33.609375 -53.757812 32.898438 -51.441406 32.453125 -49.015625 C 32.003906 -46.585938 31.398438 -44.234375 30.640625 -41.953125 L 27.828125 -32.8125 L 25.546875 -22.953125 C 25.410156 -21.566406 25.203125 -20.234375 24.921875 -18.953125 C 24.640625 -17.671875 24.398438 -16.335938 24.203125 -14.953125 Z M 23.78125 -11 "/></g></g></g><g fill="rgb(8.628845%, 39.608765%, 75.289917%)" fill-opacity="1"><g transform="translate(1058.585233, 413.14371)"><g><path d="M 21.078125 -68.75 C 25.441406 -73.726562 30.289062 -76.84375 35.625 -78.09375 C 39.289062 -78.988281 42.75 -78.847656 46 -77.671875 C 48.5625 -80.367188 51.882812 -81.335938 55.96875 -80.578125 C 59.707031 -79.890625 62.894531 -77.78125 65.53125 -74.25 C 65.664062 -73.757812 65.957031 -73.03125 66.40625 -72.0625 C 66.851562 -71.09375 67.285156 -70.019531 67.703125 -68.84375 C 70.753906 -61.78125 71 -52.503906 68.4375 -41.015625 C 65.25 -26.753906 59.601562 -14.675781 51.5 -4.78125 C 49.007812 -1.726562 46.207031 0.796875 43.09375 2.796875 C 38.113281 6.609375 32.160156 8.304688 25.234375 7.890625 C 20.941406 7.679688 17.34375 6.609375 14.4375 4.671875 C 2.875 -1.078125 -0.898438 -13.050781 3.109375 -31.25 C 6.429688 -46.207031 12.421875 -58.707031 21.078125 -68.75 Z M 22.328125 -13.609375 L 22.21875 -12.984375 L 22.4375 -11.84375 C 22.84375 -9.695312 23.53125 -8.050781 24.5 -6.90625 C 25.46875 -5.757812 26.265625 -5.050781 26.890625 -4.78125 C 27.585938 -5.332031 28.28125 -5.847656 28.96875 -6.328125 C 29.664062 -6.816406 30.289062 -7.40625 30.84375 -8.09375 C 35.550781 -13.914062 39.21875 -21.53125 41.84375 -30.9375 C 44.476562 -40.351562 45.445312 -49.078125 44.75 -57.109375 C 42.050781 -53.648438 39.210938 -49.671875 36.234375 -45.171875 C 33.265625 -40.671875 30.914062 -36.828125 29.1875 -33.640625 C 25.238281 -26.234375 22.953125 -19.554688 22.328125 -13.609375 Z M 22.328125 -13.609375 "/></g></g></g><g fill="rgb(8.628845%, 39.608765%, 75.289917%)" fill-opacity="1"><g transform="translate(1124.940468, 413.14371)"><g><path d="M 65.109375 -56.171875 C 65.941406 -49.117188 60.785156 -41.609375 49.640625 -33.640625 C 46.734375 -31.566406 44 -29.664062 41.4375 -27.9375 C 38.875 -26.207031 36.675781 -24.628906 34.84375 -23.203125 C 33.007812 -21.785156 31.988281 -20.554688 31.78125 -19.515625 C 31.632812 -17.859375 30.832031 -16.472656 29.375 -15.359375 C 27.925781 -14.253906 26.300781 -13.476562 24.5 -13.03125 C 22.707031 -12.582031 20.910156 -12.425781 19.109375 -12.5625 C 17.304688 -12.695312 15.988281 -13.179688 15.15625 -14.015625 C 13.21875 -18.171875 14.328125 -23.15625 18.484375 -28.96875 C 20.347656 -31.53125 22.523438 -34.109375 25.015625 -36.703125 C 27.515625 -39.304688 29.957031 -41.832031 32.34375 -44.28125 C 34.738281 -46.738281 36.867188 -49.078125 38.734375 -51.296875 C 40.878906 -53.929688 42.195312 -56.351562 42.6875 -58.5625 L 42.375 -58.5625 C 41.882812 -58.144531 41.414062 -57.640625 40.96875 -57.046875 C 40.519531 -56.460938 39.566406 -55.789062 38.109375 -55.03125 C 36.660156 -54.269531 35.363281 -53.644531 34.21875 -53.15625 C 33.070312 -52.675781 31.992188 -52.210938 30.984375 -51.765625 C 29.984375 -51.316406 29.363281 -51.019531 29.125 -50.875 C 28.882812 -50.738281 28.640625 -50.601562 28.390625 -50.46875 C 28.148438 -50.332031 27.828125 -50.191406 27.421875 -50.046875 L 25.75 -49.421875 C 19.726562 -47.972656 15.4375 -48.804688 12.875 -51.921875 C 11.976562 -53.023438 11.148438 -54.546875 10.390625 -56.484375 C 9.617188 -59.253906 10.378906 -62.507812 12.671875 -66.25 C 14.609375 -69.507812 17.03125 -71.984375 19.9375 -73.671875 C 22.84375 -75.367188 26.492188 -76.785156 30.890625 -77.921875 C 35.285156 -79.066406 39.628906 -79.640625 43.921875 -79.640625 C 48.210938 -79.640625 52.15625 -78.984375 55.75 -77.671875 C 59.351562 -76.359375 62.054688 -74.25 63.859375 -71.34375 C 64.554688 -70.03125 64.765625 -68.609375 64.484375 -67.078125 C 64.210938 -65.554688 63.953125 -64.363281 63.703125 -63.5 C 63.460938 -62.632812 63.359375 -61.851562 63.390625 -61.15625 C 63.429688 -60.46875 63.691406 -59.691406 64.171875 -58.828125 C 64.660156 -57.960938 64.972656 -57.078125 65.109375 -56.171875 Z M 25.4375 1.65625 C 23.988281 4.5625 22.085938 6.691406 19.734375 8.046875 C 17.378906 9.398438 15.109375 10.09375 12.921875 10.125 C 10.742188 10.15625 8.925781 9.546875 7.46875 8.296875 C 6.019531 7.054688 5.4375 5.222656 5.71875 2.796875 C 5.851562 -0.585938 7.546875 -2.90625 10.796875 -4.15625 C 14.953125 -5.8125 18.863281 -5.8125 22.53125 -4.15625 C 25.925781 -2.632812 26.894531 -0.695312 25.4375 1.65625 Z M 25.4375 1.65625 "/></g></g></g></svg>